{"title":"Freakshow Apocalypse - The Unholy Sideshow (2012)","uid":8098834,"size":2120750745,"categoryP":"video","categoryS":"movies","magnet":"?xt=urn:btih:b17143f0da541958c7d36785ecd188fe63455e90&amp;dn=Freakshow+Apocalypse+-+The+Unholy+Sideshow+%282012%29&amp;tr=udp%3A%2F%2Ftracker.openbittorrent.com%3A80&amp;tr=udp%3A%2F%2Fopen.demonii.com%3A1337&amp;tr=udp%3A%2F%2Ftracker.coppersurfer.tk%3A6969&amp;tr=udp%3A%2F%2Fexodus.desync.com%3A6969","seeders":1,"leechers":0,"uploader":"RadioResearch","files":3,"time":1359915999,"description":"*******************************************************************************\n               Freakshow Apocalypse - The Unholy Sideshow (2012)\n*******************************************************************************\n\n-------------------------------------------------------------------------------\n                              General Information\n-------------------------------------------------------------------------------\nType.................: Movie\n\n\n\nVideo Format.........: AVI\nVideo Bitrate........: 4067\nResolution...........: 720 x 540\nColor................: 8 bit\nFPS..................: 29.970\nSource...............: DVD 4x3\nOriginal Format......: NTSC\nGenre................: Horror\nIMDb Rating..........: None yet\nMovie Information....: http://www.imdb.com/title/tt2189858\n\n-------------------------------------------------------------------------------\n                               Post Information\n-------------------------------------------------------------------------------\nPosted by............: RadioResearch\nPosted on............: 2/3/2013\n\n-------------------------------------------------------------------------------\n                                 Release Notes\n-------------------------------------------------------------------------------\nA brand new epic myth of our modern apocalypse. The Order of Mystery, a secret \nsociety of necromancers dating back to ancient Sumeria, control the fate of the \nworld. It is their duty to push back the armies of the abyss every 200 years \nthrough a series of ritual sacrifices. The Unholy Sideshow, a family of serial \nkiller, black magician sideshow freaks, are next for the job that has prevented \nthe coming of the dead for thousands of years. A bitter feud between Malerkus \nand Lazari, two mad scientist black magicians, causes the ritual to be delayed, \nsetting off the balance of the living and the dead. It is up to The Amazing \nBarry Silver, a young magician and fakir, to stop them. With the help of The \nEnigma, a gum-shoe detective and guardian of The Order, Barry must stop Malerkus \nand Lazari before time runs out. As society has grown weak and deceitful so has \nthe Order of Mystery. Witness the beginning of this action filled saga where \nevil battles evil while the fate of mankind lies in the hands of the twisted and \nderanged. If the ritual is not set in motion, and the Unholy Sideshow is not up \nto the task, the gates of the abyss will cover the earth in darkness. In a world \nof fire breathing vampires, modified killers and an onslaught of zombies, no one \nis safe. When it's evil vs. evil who can you trust?\n\nEnjoy!\n\nRadioResearch\n\n1.  Please vote on IMDB and rate the movies I post.\n2.  Please seed as much as you can; don't leech and run.\n3.  A thank you now and then would be greatly appreciated.\n\nGeneral\nComplete name                            : G:AVIFreakshow Apocalypse - The \nUnholy Sideshow (2012)5_26_2012 8_56 A_Title1.avi\nFormat                                   : AVI\nFormat/Info                              : Audio Video Interleave\nFormat profile                           : OpenDML\nFile size                                : 1.98 GiB\nDuration                                 : 1h 9mn\nOverall bit rate                         : 4 067 Kbps\nMovie name                               : 5_26_2012_8_56_A\nDirector                                 : Matthew_Broomfield\nGenre                                    : Horror\nWriting application                      : MEncoder 5.0\nWriting library                          : [= DigiArty videodll! =]\n\nVideo\nID                                       : 0\nFormat                                   : MPEG-4 Visual\nFormat profile                           : Simple@L1\nFormat settings, BVOP                    : No\nFormat settings, QPel                    : No\nFormat settings, GMC                     : No warppoints\nFormat settings, Matrix                  : Default (H.263)\nCodec ID                                 : DX50\nCodec ID/Hint                            : DivX 5\nDuration                                 : 1h 9mn\nBit rate                                 : 3 869 Kbps\nWidth                                    : 720 pixels\nHeight                                   : 540 pixels\nDisplay aspect ratio                     : 4:3\nFrame rate                               : 29.970 fps\nColor space                              : YUV\nChroma subsampling                       : 4:2:0\nBit depth                                : 8 bits\nScan type                                : Progressive\nCompression mode                         : Lossy\nBits/(Pixel*Frame)                       : 0.332\nStream size                              : 1.88 GiB (95%)\nWriting library                          : Lavc54.71.100\n\nAudio\nID                                       : 1\nFormat                                   : AC-3\nFormat/Info                              : Audio Coding 3\nMode extension                           : CM (complete main)\nFormat settings, Endianness              : Big\nCodec ID                                 : 2000\nDuration                                 : 1h 9mn\nBit rate mode                            : Constant\nBit rate                                 : 192 Kbps\nChannel(s)                               : 2 channels\nChannel positions                        : Front: L R\nSampling rate                            : 48.0 KHz\nBit depth                                : 16 bits\nCompression mode                         : Lossy\nStream size                              : 95.5 MiB (5%)\nAlignment                                : Split accross interleaves\nInterleave, duration                     : 500 ms (14.98 video frames)\nInterleave, preload duration             : 500 ms\n\n\n\n\n-------------------------------------------------------------------------------\nGenerated with Cool NFO Creator - http://fly.to/coolbeans\n-------------------------------------------------------------------------------\n","torrent":{"xt":"urn:btih:b17143f0da541958c7d36785ecd188fe63455e90","amp;dn":"Freakshow+Apocalypse+-+The+Unholy+Sideshow+%282012%29","amp;tr":["udp%3A%2F%2Ftracker.openbittorrent.com%3A80","udp%3A%2F%2Fopen.demonii.com%3A1337","udp%3A%2F%2Ftracker.coppersurfer.tk%3A6969","udp%3A%2F%2Fexodus.desync.com%3A6969"],"infoHash":"b17143f0da541958c7d36785ecd188fe63455e90","infoHashBuffer":{"type":"Buffer","data":[177,113,67,240,218,84,25,88,199,211,103,133,236,209,136,254,99,69,94,144]},"announce":[],"urlList":[]}}